#N canvas 0 256 950 544 12;
#X obj 36 59 inlet messages;
#X obj 257 61 inlet~ input-l;
#X obj 257 270 tabwrite~ \$0-loop-l;
#X obj 427 270 tabwrite~ \$0-loop-r;
#X obj 427 61 inlet~ input-r;
#X msg 356 167 stop;
#X obj 111 176 s \$0-sec;
#N canvas 378 616 393 279 setup-arrays 1;
#X obj 25 50 array define \$0-loop-r 48000;
#X obj 25 31 array define \$0-loop-l 48000;
#X floatatom 146 147 15 0 0 0 total\ samples - - 0;
#X obj 146 93 r \$0-sec;
#X obj 146 195 array size \$0-loop-l;
#X obj 156 214 array size \$0-loop-r;
#X obj 146 123 * 48000;
#X obj 156 170 s \$0-total-samples;
#X connect 2 0 4 0;
#X connect 2 0 5 0;
#X connect 2 0 7 0;
#X connect 3 0 6 0;
#X connect 6 0 2 0;
#X restore 36 20 pd setup-arrays;
#X obj 36 307 s \$0-vol;
#X obj 73 280 s \$0-mute;
#X obj 282 135 sel 1, f 11;
#X obj 575 210 outlet~ output-l;
#X obj 691 187 outlet~ output-r;
#X obj 73 246 f;
#X obj 356 204 t b;
#X obj 225 165 t b;
#X msg 225 189 1;
#N canvas -1340 320 559 597 loop-player 0;
#X obj 204 511 outlet~ output-l;
#X obj 354 510 outlet~ output-r;
#X obj 204 308 tabread4~ \$0-loop-l;
#X obj 354 308 tabread4~ \$0-loop-r;
#X obj 204 372 *~;
#X obj 354 372 *~;
#X obj 132 285 t f;
#X obj 132 338 line~;
#X msg 132 309 \$1 5;
#X obj 204 472 *~;
#X obj 354 472 *~;
#X obj 43 331 t f;
#X obj 43 415 line~;
#X msg 43 385 \$1 5;
#X obj 43 355 == 0;
#X obj 256 198 r \$0-total-samples;
#X obj 43 300 r \$0-mute;
#X obj 132 259 r \$0-vol;
#X obj 353 246 snapshot~;
#X obj 353 270 s \$0-current-point;
#X obj 400 212 r \$0-get-snapshot;
#X obj 203 228 *~ 48000;
#X obj 202 143 inlet~ phasor;
#X connect 2 0 4 0;
#X connect 3 0 5 0;
#X connect 4 0 9 0;
#X connect 5 0 10 0;
#X connect 6 0 8 0;
#X connect 7 0 4 1;
#X connect 7 0 5 1;
#X connect 8 0 7 0;
#X connect 9 0 0 0;
#X connect 10 0 1 0;
#X connect 11 0 14 0;
#X connect 12 0 9 1;
#X connect 12 0 10 1;
#X connect 13 0 12 0;
#X connect 14 0 13 0;
#X connect 15 0 21 1;
#X connect 16 0 11 0;
#X connect 17 0 6 0;
#X connect 18 0 19 0;
#X connect 20 0 18 0;
#X connect 21 0 2 0;
#X connect 21 0 18 0;
#X connect 21 0 3 0;
#X connect 22 0 21 0;
#X restore 576 127 pd loop-player \$1;
#X obj 575 59 inlet~ phasor;
#X obj 36 93 route vol mute sec rec;
#X connect 0 0 19 0;
#X connect 1 0 2 0;
#X connect 4 0 3 0;
#X connect 5 0 2 0;
#X connect 5 0 3 0;
#X connect 5 0 14 0;
#X connect 10 0 2 0;
#X connect 10 0 3 0;
#X connect 10 0 15 0;
#X connect 10 1 5 0;
#X connect 13 0 9 0;
#X connect 14 0 13 0;
#X connect 15 0 16 0;
#X connect 16 0 9 0;
#X connect 17 0 11 0;
#X connect 17 1 12 0;
#X connect 18 0 17 0;
#X connect 19 0 8 0;
#X connect 19 1 13 0;
#X connect 19 2 6 0;
#X connect 19 3 10 0;
