#N canvas 589 304 924 512 12;
#X obj 36 59 inlet messages;
#X obj 277 72 inlet~ input-l;
#X obj 277 391 tabwrite~ \$0-loop-l;
#X obj 307 410 tabwrite~ \$0-loop-r;
#X obj 307 91 inlet~ input-r;
#X msg 223 236 stop;
#X obj 111 266 s \$0-sec;
#N canvas 378 616 393 279 setup-arrays 0;
#X obj 25 50 array define \$0-loop-r 48000;
#X obj 25 31 array define \$0-loop-l 48000;
#X floatatom 146 147 15 0 0 0 total\ samples - - 0;
#X obj 146 93 r \$0-sec;
#X obj 146 195 array size \$0-loop-l;
#X obj 156 214 array size \$0-loop-r;
#X obj 146 123 * 48000;
#X obj 156 170 s \$0-total-samples;
#X connect 2 0 4 0;
#X connect 2 0 5 0;
#X connect 2 0 7 0;
#X connect 3 0 6 0;
#X connect 6 0 2 0;
#X restore 36 20 pd setup-arrays;
#X obj 36 417 s \$0-vol;
#X obj 73 390 s \$0-mute;
#X obj 149 189 sel 1, f 11;
#X obj 455 400 outlet~ output-l;
#X obj 571 377 outlet~ output-r;
#X obj 73 356 f;
#X obj 223 273 t b;
#X msg 108 356 1;
#N canvas 285 291 574 501 loop-player 0;
#X obj 195 392 outlet~ output-l;
#X obj 345 391 outlet~ output-r;
#X obj 195 189 tabread4~ \$0-loop-l;
#X obj 345 189 tabread4~ \$0-loop-r;
#X obj 195 253 *~;
#X obj 345 253 *~;
#X obj 123 166 t f;
#X obj 123 219 line~;
#X msg 123 190 \$1 5;
#X obj 195 353 *~;
#X obj 345 353 *~;
#X obj 34 212 t f;
#X obj 34 296 line~;
#X msg 34 266 \$1 5;
#X obj 34 236 == 0;
#X obj 247 79 r \$0-total-samples;
#X obj 34 181 r \$0-mute;
#X obj 123 140 r \$0-vol;
#X obj 344 127 snapshot~;
#X obj 344 151 s \$0-current-point;
#X obj 391 93 r \$0-get-snapshot;
#X obj 194 109 *~ 48000;
#X obj 193 24 inlet~ phasor;
#X connect 2 0 4 0;
#X connect 3 0 5 0;
#X connect 4 0 9 0;
#X connect 5 0 10 0;
#X connect 6 0 8 0;
#X connect 7 0 4 1;
#X connect 7 0 5 1;
#X connect 8 0 7 0;
#X connect 9 0 0 0;
#X connect 10 0 1 0;
#X connect 11 0 14 0;
#X connect 12 0 9 1;
#X connect 12 0 10 1;
#X connect 13 0 12 0;
#X connect 14 0 13 0;
#X connect 15 0 21 1;
#X connect 16 0 11 0;
#X connect 17 0 6 0;
#X connect 18 0 19 0;
#X connect 20 0 18 0;
#X connect 21 0 2 0;
#X connect 21 0 18 0;
#X connect 21 0 3 0;
#X connect 22 0 21 0;
#X restore 456 237 pd loop-player \$1;
#X obj 455 59 inlet~ phasor;
#X obj 36 93 route vol mute sec rec;
#X obj 590 296 threshold~ 0.001 100 0 100;
#X obj 590 334 s \$2-\$1-audio-indicator;
#X obj 481 117 snapshot~;
#X text 480 87 Save offset when we start recording;
#X obj 456 172 wrap~;
#X obj 456 148 -~ 0;
#X obj 169 25 print \$1-message;
#X obj 149 218 t b b b;
#X obj 307 278 *~;
#X obj 324 233 line~;
#X obj 277 278 *~;
#X obj 149 127 t f f;
#X msg 324 209 \$1 5;
#X obj 149 159 pipe 5;
#X connect 0 0 18 0;
#X connect 1 0 29 0;
#X connect 4 0 27 0;
#X connect 5 0 2 0;
#X connect 5 0 3 0;
#X connect 5 0 14 0;
#X connect 10 0 26 0;
#X connect 10 1 5 0;
#X connect 13 0 9 0;
#X connect 14 0 13 0;
#X connect 15 0 9 0;
#X connect 16 0 11 0;
#X connect 16 0 19 0;
#X connect 16 1 12 0;
#X connect 16 1 19 0;
#X connect 17 0 24 0;
#X connect 17 0 21 0;
#X connect 18 0 8 0;
#X connect 18 1 13 0;
#X connect 18 2 6 0;
#X connect 18 3 30 0;
#X connect 19 0 20 0;
#X connect 21 0 24 1;
#X connect 23 0 16 0;
#X connect 24 0 23 0;
#X connect 26 0 2 0;
#X connect 26 0 3 0;
#X connect 26 1 15 0;
#X connect 26 2 21 0;
#X connect 27 0 3 0;
#X connect 28 0 27 1;
#X connect 28 0 29 1;
#X connect 29 0 2 0;
#X connect 30 0 32 0;
#X connect 30 1 31 0;
#X connect 31 0 28 0;
#X connect 32 0 10 0;
