#N canvas 722 35 740 544 12;
#X obj 36 59 inlet messages;
#X obj 257 61 inlet~ input-l;
#X obj 257 350 tabwrite~ \$0-loop-l;
#X obj 427 350 tabwrite~ \$0-loop-r;
#X obj 427 61 inlet~ input-r;
#X msg 372 292 stop;
#X obj 147 142 s \$0-sec;
#N canvas 109 483 393 279 setup-arrays 0;
#X obj 25 50 array define \$0-loop-r 48000;
#X obj 25 31 array define \$0-loop-l 48000;
#X floatatom 146 147 15 0 0 0 total\ samples - - 0;
#X obj 146 93 r \$0-sec;
#X obj 146 195 array size \$0-loop-l;
#X obj 156 214 array size \$0-loop-r;
#X obj 146 123 * 48000;
#X obj 156 170 s \$0-total-samples;
#X connect 2 0 4 0;
#X connect 2 0 5 0;
#X connect 2 0 7 0;
#X connect 3 0 6 0;
#X connect 6 0 2 0;
#X restore 36 20 pd setup-arrays;
#X obj 110 171 s \$0-play;
#X obj 36 227 s \$0-vol;
#X obj 73 200 s \$0-mute;
#X obj 36 93 route vol mute play sec rec;
#X obj 298 260 sel 1, f 11;
#N canvas 130 130 559 597 loop-player 0;
#X obj 204 511 outlet~ output-l;
#X obj 354 510 outlet~ output-r;
#X obj 204 308 tabread4~ \$0-loop-l;
#X obj 354 308 tabread4~ \$0-loop-r;
#X obj 203 228 *~ 48000;
#X obj 203 165 phasor~ 1;
#X obj 204 372 *~;
#X obj 354 372 *~;
#X obj 132 285 t f;
#X obj 132 338 line~;
#X msg 132 309 \$1 5;
#X obj 204 472 *~;
#X obj 354 472 *~;
#X obj 43 331 t f;
#X obj 43 415 line~;
#X msg 43 385 \$1 5;
#X obj 43 355 == 0;
#X msg 263 134 0;
#X obj 203 58 swap 1;
#X obj 203 82 /;
#X floatatom 203 106 5 0 0 0 hz - - 0;
#X obj 256 198 r \$0-total-samples;
#X obj 203 34 r \$0-sec;
#X obj 263 102 r \$0-play;
#X obj 43 300 r \$0-mute;
#X obj 132 259 r \$0-vol;
#X obj 353 246 snapshot~;
#X obj 353 270 s \$0-current-point;
#X obj 400 212 r \$0-get-snapshot;
#X connect 2 0 6 0;
#X connect 3 0 7 0;
#X connect 4 0 2 0;
#X connect 4 0 26 0;
#X connect 4 0 3 0;
#X connect 5 0 4 0;
#X connect 6 0 11 0;
#X connect 7 0 12 0;
#X connect 8 0 10 0;
#X connect 9 0 6 1;
#X connect 9 0 7 1;
#X connect 10 0 9 0;
#X connect 11 0 0 0;
#X connect 12 0 1 0;
#X connect 13 0 16 0;
#X connect 14 0 11 1;
#X connect 14 0 12 1;
#X connect 15 0 14 0;
#X connect 16 0 15 0;
#X connect 17 0 5 1;
#X connect 18 0 19 0;
#X connect 18 1 19 1;
#X connect 19 0 20 0;
#X connect 20 0 5 0;
#X connect 21 0 4 1;
#X connect 22 0 18 0;
#X connect 23 0 17 0;
#X connect 24 0 13 0;
#X connect 25 0 8 0;
#X connect 26 0 27 0;
#X connect 28 0 26 0;
#X restore 38 387 pd loop-player;
#X obj 37 470 outlet~ output-l;
#X obj 133 447 outlet~ output-r;
#X connect 0 0 11 0;
#X connect 1 0 2 0;
#X connect 4 0 3 0;
#X connect 5 0 2 0;
#X connect 5 0 3 0;
#X connect 11 0 9 0;
#X connect 11 1 10 0;
#X connect 11 2 8 0;
#X connect 11 3 6 0;
#X connect 11 4 12 0;
#X connect 12 0 2 0;
#X connect 12 0 3 0;
#X connect 12 1 5 0;
#X connect 13 0 14 0;
#X connect 13 1 15 0;
