#N canvas 62 157 603 514 12;
#X obj 244 136 - 0.01;
#X obj 248 422 s loop-control-message;
#X obj 443 160 t b f;
#X msg 443 184 symbol rec;
#X obj 345 161 t b f;
#X msg 345 185 symbol mute;
#X obj 244 160 t b f;
#X msg 244 184 symbol vol;
#X obj 248 280 pack s f, f 12;
#X obj 248 304 t b a;
#X obj 248 345 f \$1;
#X obj 248 380 list append;
#X obj 123 9 loadbang;
#X obj 345 131 r \$0-mute-s;
#X obj 443 132 r \$0-rec-s;
#X obj 244 107 r \$0-vol-s;
#N canvas 398 268 903 445 gui-colors 0;
#X msg 395 231 color #ffffff #000000 #000000;
#X obj 393 171 sel 1;
#X msg 120 230 color #ffffff #000000 #000000;
#X obj 118 170 sel 1;
#X msg 120 200 color #ff0000 #880000 #000000;
#X msg 394 201 color #ffff00 #888800 #000000;
#X obj 345 273 s \$0-mute-r;
#X obj 347 134 r \$0-mute-s;
#X obj 90 278 s \$0-rec-r;
#X obj 98 141 r \$0-rec-s;
#X msg 345 231 0;
#X obj 242 293 s \$0-vol-r;
#X msg 242 263 1;
#X obj 158 33 inlet;
#X obj 657 285 s \$0-hidden-toggle-r;
#X obj 158 63 t b b b b b;
#X obj 694 34 r \$2-\$1-audio-indicator;
#X msg 753 58 1, f 1;
#X msg 733 58 0, f 1;
#X obj 694 113 t b b b;
#X obj 694 166 t b b;
#X obj 694 89 spigot 1;
#X obj 694 142 del 100;
#X obj 694 190 del 100;
#X obj 587 69 f \$1;
#X msg 587 133 label ​\$1;
#X obj 587 93 + 1;
#X msg 683 247 color #000000 #000000 #aaaaaa;
#X msg 681 217 color #000000 #000000 #444444;
#X connect 0 0 6 0;
#X connect 1 0 5 0;
#X connect 1 1 0 0;
#X connect 2 0 8 0;
#X connect 3 0 4 0;
#X connect 3 1 2 0;
#X connect 4 0 8 0;
#X connect 5 0 6 0;
#X connect 7 0 1 0;
#X connect 9 0 3 0;
#X connect 10 0 6 0;
#X connect 12 0 11 0;
#X connect 13 0 15 0;
#X connect 15 0 2 0;
#X connect 15 1 0 0;
#X connect 15 2 10 0;
#X connect 15 3 12 0;
#X connect 15 4 24 0;
#X connect 15 4 27 0;
#X connect 16 0 21 0;
#X connect 17 0 21 1;
#X connect 18 0 21 1;
#X connect 19 0 22 0;
#X connect 19 1 28 0;
#X connect 19 2 18 0;
#X connect 20 0 23 0;
#X connect 20 1 27 0;
#X connect 21 0 19 0;
#X connect 22 0 20 0;
#X connect 23 0 17 0;
#X connect 24 0 26 0;
#X connect 25 0 14 0;
#X connect 26 0 25 0;
#X connect 27 0 14 0;
#X connect 28 0 14 0;
#X restore 123 42 pd gui-colors;
#X obj 100 100 cnv 15 45 300 empty empty empty 20 12 0 14 #e0e0e0 #404040
0;
#X obj 108 362 tgl 30 0 \$0-mute-s \$0-mute-r MUTE 4 -10 0 10 #ffffff
#000000 #000000 0 1;
#X obj 108 312 tgl 30 0 \$0-rec-s \$0-rec-r REC 6 -10 0 10 #ffffff
#000000 #000000 0 1;
#X obj 114 170 tgl 15 0 \$0-hidden-toggle-s \$0-hidden-toggle-r ​5
0 -45 0 30 #000000 #000000 #aaaaaa 0 1;
#X obj 108 161 vsl 30 128 0.01 1.01 1 0 \$0-vol-s \$0-vol-r VOL 6 -9
0 10 #fcfcfc #000000 #000000 0 1;
#X connect 0 0 6 0;
#X connect 2 0 3 0;
#X connect 2 1 8 1;
#X connect 3 0 8 0;
#X connect 4 0 5 0;
#X connect 4 1 8 1;
#X connect 5 0 8 0;
#X connect 6 0 7 0;
#X connect 6 1 8 1;
#X connect 7 0 8 0;
#X connect 8 0 9 0;
#X connect 9 0 10 0;
#X connect 9 1 11 1;
#X connect 10 0 11 0;
#X connect 11 0 1 0;
#X connect 12 0 16 0;
#X connect 13 0 4 0;
#X connect 14 0 2 0;
#X connect 15 0 0 0;
#X coords 0 -1 1 1 45 300 2 100 100;
