#N canvas 530 78 595 781 12;
#X obj 26 99 inlet messages;
#X obj 25 38 array define \$0-loop-r 48000;
#X obj 25 19 array define \$0-loop-l 48000;
#X obj 217 101 inlet~ input-l;
#X obj 217 330 tabwrite~ \$0-loop-l;
#X obj 367 330 tabwrite~ \$0-loop-r;
#X obj 193 652 outlet~ output-l;
#X obj 343 651 outlet~ output-r;
#X obj 367 101 inlet~ input-r;
#X obj 26 133 route start-rec stop-rec;
#X msg 108 209 stop;
#X obj 108 259 t a;
#X obj 108 170 t b;
#X obj 26 170 t b;
#X obj 191 429 t a;
#X obj 191 378 route play;
#X msg 191 405 0;
#X obj 193 609 tabread4~ \$0-loop-l;
#X obj 343 609 tabread4~ \$0-loop-r;
#X obj 192 519 *~ 48000;
#X obj 192 476 phasor~ 1;
#X connect 0 0 9 0;
#X connect 3 0 4 0;
#X connect 8 0 5 0;
#X connect 9 0 13 0;
#X connect 9 1 12 0;
#X connect 9 2 15 0;
#X connect 10 0 11 0;
#X connect 11 0 4 0;
#X connect 11 0 5 0;
#X connect 12 0 10 0;
#X connect 13 0 11 0;
#X connect 15 0 16 0;
#X connect 15 1 14 0;
#X connect 16 0 14 0;
#X connect 17 0 6 0;
#X connect 18 0 7 0;
#X connect 19 0 17 0;
#X connect 19 0 18 0;
#X connect 20 0 19 0;
