#N canvas -1267 118 785 674 12;
#X obj 105 326 - 0.01;
#X obj 148 222 tgl 30 0 \$0-mute-s \$0-mute-r MUTE 0 -10 0 10 #ffffff
#000000 #000000 0 1;
#X obj 109 612 s loop-control-message;
#X obj 148 172 tgl 30 0 \$0-rec-s \$0-rec-r REC 0 -10 0 10 #ffffff
#000000 #000000 0 1;
#X obj 304 350 t b f;
#X msg 304 374 symbol rec;
#X obj 206 351 t b f;
#X msg 206 375 symbol mute;
#X obj 105 350 t b f;
#X msg 105 374 symbol vol;
#X obj 109 470 pack s f, f 12;
#X obj 109 494 t b a;
#X obj 109 535 f \$1;
#X obj 109 570 list append;
#X msg 491 168 color #ffffff #000000 #000000;
#X obj 489 108 sel 1;
#X msg 236 167 color #ffffff #000000 #000000;
#X obj 234 107 sel 1;
#X msg 236 137 color #ff0000 #880000 #000000;
#X msg 490 138 color #ffff00 #888800 #000000;
#X obj 123 130 tgl 15 0 empty empty \$1 30 7 0 30 #fcfcfc #000000 #000000
0 1;
#X obj 108 121 vsl 30 128 0.01 1.01 1 0 \$0-vol-s \$0-vol-r VOL 0 -9
0 10 #fcfcfc #000000 #000000 0 1;
#X msg 123 66 label \$1;
#X obj 123 9 loadbang;
#X obj 123 42 symbol \\\$1;
#X obj 341 60 t b b;
#X obj 206 321 r \$0-mute-s;
#X obj 461 210 s \$0-mute-r;
#X obj 463 71 r \$0-mute-s;
#X obj 304 322 r \$0-rec-s;
#X obj 206 215 s \$0-rec-r;
#X obj 214 78 r \$0-rec-s;
#X obj 105 297 r \$0-vol-s;
#X connect 0 0 8 0;
#X connect 4 0 5 0;
#X connect 4 1 10 1;
#X connect 5 0 10 0;
#X connect 6 0 7 0;
#X connect 6 1 10 1;
#X connect 7 0 10 0;
#X connect 8 0 9 0;
#X connect 8 1 10 1;
#X connect 9 0 10 0;
#X connect 10 0 11 0;
#X connect 11 0 12 0;
#X connect 11 1 13 1;
#X connect 12 0 13 0;
#X connect 13 0 2 0;
#X connect 14 0 27 0;
#X connect 15 0 19 0;
#X connect 15 1 14 0;
#X connect 16 0 30 0;
#X connect 17 0 18 0;
#X connect 17 1 16 0;
#X connect 18 0 30 0;
#X connect 19 0 27 0;
#X connect 22 0 20 0;
#X connect 23 0 24 0;
#X connect 23 0 25 0;
#X connect 24 0 22 0;
#X connect 25 0 16 0;
#X connect 25 1 14 0;
#X connect 26 0 6 0;
#X connect 28 0 15 0;
#X connect 29 0 4 0;
#X connect 31 0 17 0;
#X connect 32 0 0 0;
#X coords 0 -1 1 1 85 160 2 100 100;
