#N canvas 988 71 595 839 12;
#X obj 26 99 inlet messages;
#X obj 25 38 array define \$0-loop-r 48000;
#X obj 25 19 array define \$0-loop-l 48000;
#X obj 217 101 inlet~ input-l;
#X obj 217 330 tabwrite~ \$0-loop-l;
#X obj 367 330 tabwrite~ \$0-loop-r;
#X obj 193 792 outlet~ output-l;
#X obj 343 791 outlet~ output-r;
#X obj 367 101 inlet~ input-r;
#X msg 65 208 stop;
#X obj 65 237 t a;
#X obj 193 579 tabread4~ \$0-loop-l;
#X obj 343 579 tabread4~ \$0-loop-r;
#X obj 192 519 *~ 48000;
#X obj 192 476 phasor~ 1;
#X obj 65 169 sel 0 1;
#X obj 193 643 *~;
#X obj 343 643 *~;
#X obj 26 515 t f;
#X obj 26 579 line~;
#X msg 26 539 \$1 5;
#X obj 193 753 *~;
#X obj 343 753 *~;
#X obj 105 625 t f;
#X obj 105 719 line~;
#X msg 105 689 \$1 5;
#X obj 105 649 == 0;
#X obj 26 133 route vol rec mute play;
#X msg 252 445 0;
#X obj 144 385 t b;
#X connect 0 0 27 0;
#X connect 3 0 4 0;
#X connect 8 0 5 0;
#X connect 9 0 10 0;
#X connect 10 0 4 0;
#X connect 10 0 5 0;
#X connect 11 0 16 0;
#X connect 12 0 17 0;
#X connect 13 0 11 0;
#X connect 13 0 12 0;
#X connect 14 0 13 0;
#X connect 15 0 9 0;
#X connect 15 1 10 0;
#X connect 16 0 21 0;
#X connect 17 0 22 0;
#X connect 18 0 20 0;
#X connect 19 0 16 1;
#X connect 19 0 17 1;
#X connect 20 0 19 0;
#X connect 21 0 6 0;
#X connect 22 0 7 0;
#X connect 23 0 26 0;
#X connect 24 0 21 1;
#X connect 24 0 22 1;
#X connect 25 0 24 0;
#X connect 26 0 25 0;
#X connect 27 0 18 0;
#X connect 27 1 15 0;
#X connect 27 2 23 0;
#X connect 27 3 29 0;
#X connect 28 0 14 1;
#X connect 29 0 28 0;
