#N canvas -1331 64 799 728 12;
#X obj 400 523 == 0;
#X obj 400 571 line~;
#X obj 205 627 *~;
#X obj 305 627 *~;
#X obj 205 567 *~;
#X obj 305 567 *~;
#X obj 344 525 line~;
#X msg 400 547 \$1 5;
#X msg 344 501 \$1 5;
#X msg 30 378 set \$1;
#X obj 30 292 r loop-control-message;
#X obj 30 345 unpack f;
#X obj 30 316 t a a;
#N canvas -986 306 713 576 bpm-handling 0;
#X floatatom 348 182 9 0 0 0 - - - 0;
#X msg 348 285 all sec \$1;
#X obj 348 158 expr (240 / $f1) * $f2;
#X obj 348 349 outlet;
#X obj 302 28 inlet bpm;
#X obj 435 28 inlet measures;
#X obj 569 28 inlet reset;
#X obj 499 131 + 1;
#X obj 435 52 t b f;
#X obj 302 96 f;
#X obj 302 122 t b f f;
#N canvas 111 509 507 420 measure-counter 0;
#X obj 135 113 metro;
#X msg 47 185 1;
#X obj 135 142 f 0;
#X obj 191 123 + 1;
#X obj 135 166 t f f f;
#X floatatom 135 275 5 0 0 0 - - - 0;
#X obj 214 226 sel 1;
#X msg 214 250 0;
#X obj 214 202 > 14;
#X obj 167 77 expr (15000 / $f1) * $f2;
#X obj 47 148 r \$0-reset;
#X obj 135 90 tgl 15 0 empty empty empty 17 7 0 10 #fcfcfc #000000
#000000 0 1;
#X obj 167 30 inlet bpm;
#X obj 332 30 inlet num-measures;
#X obj 132 336 hradio 15 1 0 16 empty empty LOOP\\\ POSITION 0 -8 0
10 #fcfcfc #000000 #000000 0;
#X connect 0 0 2 0;
#X connect 1 0 11 0;
#X connect 2 0 4 0;
#X connect 3 0 2 1;
#X connect 4 0 5 0;
#X connect 4 1 8 0;
#X connect 4 2 3 0;
#X connect 6 0 7 0;
#X connect 7 0 2 1;
#X connect 8 0 6 0;
#X connect 9 0 0 1;
#X connect 10 0 7 0;
#X connect 10 0 1 0;
#X connect 11 0 0 0;
#X connect 12 0 9 0;
#X connect 13 0 9 1;
#X restore 48 506 pd measure-counter;
#X obj 169 363 phasor~ 1;
#X msg 229 332 0;
#X obj 169 256 swap 1;
#X obj 169 280 /;
#X floatatom 169 304 5 0 0 0 hz - - 0;
#X obj 169 387 throw~ \$0-phasor;
#X obj 229 300 r \$0-reset;
#X obj 569 52 t b;
#X connect 0 0 1 0;
#X connect 0 0 14 0;
#X connect 1 0 3 0;
#X connect 2 0 0 0;
#X connect 4 0 9 0;
#X connect 5 0 8 0;
#X connect 6 0 19 0;
#X connect 7 0 2 1;
#X connect 8 0 9 0;
#X connect 8 1 7 0;
#X connect 9 0 10 0;
#X connect 10 2 2 0;
#X connect 12 0 17 0;
#X connect 13 0 12 1;
#X connect 14 0 15 0;
#X connect 14 1 15 1;
#X connect 15 0 16 0;
#X connect 16 0 12 0;
#X connect 18 0 13 0;
#X connect 19 0 9 0;
#X coords 0 576 1 575 250 60 0;
#X restore 204 292 pd bpm-handling;
#X f 36;
#X obj 307 412 catch~ \$0-phasor;
#X obj 344 470 r \$0-volume-s;
#X obj 400 496 r \$0-mute-s;
#X obj 453 262 r \$0-reset-s;
#X obj 328 262 r \$0-measures-s;
#X obj 204 262 r \$0-bpm-s;
#X obj 204 441 clone loop 6 \$0;
#N canvas -1472 390 450 300 gui-colors 0;
#X msg 146 157 color #ffffff #000000 #000000;
#X obj 114 97 sel 1;
#X msg 114 127 color #ffff00 #888800 #000000;
#X obj 114 63 r \$0-mute-s;
#X obj 114 192 s \$0-mute-r;
#X obj 215 63 loadbang;
#X connect 0 0 4 0;
#X connect 1 0 2 0;
#X connect 1 1 0 0;
#X connect 2 0 4 0;
#X connect 3 0 1 0;
#X connect 5 0 0 0;
#X restore 641 14 pd gui-colors;
#X obj 11 12 cnv 15 598 202 empty empty PD\ LOOPER 10 20 0 16 #e0e0e0
#606060 0;
#X obj 100 54 loop-controls 0;
#X obj 185 54 loop-controls 1;
#X obj 270 54 loop-controls 2;
#X obj 355 54 loop-controls 3;
#X floatatom 266 21 8 0 0 0 BPM \$0-bpm-r \$0-bpm-s 16;
#X obj 577 21 bng 23 250 50 0 \$0-reset-s \$0-reset-r RESET -55 12
0 16 #fcfcfc #000000 #000000;
#X obj 411 21 hradio 23 1 0 4 \$0-measures-s \$0-measures-r BARS -43
12 0 16 #fcfcfc #000000 #000000 0;
#X obj 440 54 loop-controls 4;
#X obj 525 54 loop-controls 5;
#X obj 11 54 cnv 15 85 160 empty empty empty 20 12 0 14 #7c7c7c #404040
0;
#X obj 23 79 cnv 15 10 10 empty empty M 40 12 0 30 #e0e0e0 #ffffff
0;
#X obj 58 176 tgl 30 0 \$0-mute-s \$0-mute-r MUTE 0 -10 0 10 #ffffff
#000000 #000000 0 1;
#X obj 18 75 vsl 30 128 0.01 1.01 1 0 \$0-volume-s \$0-volume-r MAIN
0 -9 0 10 #ffffff #000000 #ffffff 0 1;
#X obj 205 657 outlet~ left;
#X obj 306 657 outlet~ right;
#X obj 237 365 inlet~ in-left;
#X obj 273 387 inlet~ in-right;
#X connect 0 0 7 0;
#X connect 1 0 2 1;
#X connect 1 0 3 1;
#X connect 2 0 36 0;
#X connect 3 0 37 0;
#X connect 4 0 2 0;
#X connect 5 0 3 0;
#X connect 6 0 4 1;
#X connect 6 0 5 1;
#X connect 7 0 1 0;
#X connect 8 0 6 0;
#X connect 9 0 20 0;
#X connect 10 0 12 0;
#X connect 11 0 9 0;
#X connect 12 0 11 0;
#X connect 12 1 20 0;
#X connect 13 0 20 0;
#X connect 14 0 20 3;
#X connect 15 0 8 0;
#X connect 16 0 0 0;
#X connect 17 0 13 2;
#X connect 18 0 13 1;
#X connect 19 0 13 0;
#X connect 20 0 4 0;
#X connect 20 1 5 0;
#X connect 38 0 20 1;
#X connect 39 0 20 2;
#X coords 0 -1 1 1 600 206 1 10 10;
