#N canvas 519 22 803 714 12;
#X obj 110 212 loop, f 10;
#X obj 111 681 dac~;
#X obj 142 163 adc~;
#X msg 55 53 start-rec;
#X msg 95 84 stop-rec;
#X msg 125 116 play;
#X obj 220 410 hsl 128 15 0 1 0 0 empty empty VOLUME -2 -8 0 10 #fcfcfc
#000000 #000000 0 1;
#X obj 217 526 tgl 30 0 empty empty MUTE 35 7 0 10 #fcfcfc #000000
#000000 0 1;
#X obj 217 561 == 0;
#X obj 217 609 line~;
#X obj 111 644 *~;
#X obj 178 644 *~;
#X obj 111 504 *~;
#X obj 178 504 *~;
#X obj 217 462 line~;
#X msg 217 585 \$1 5;
#X msg 217 438 \$1 5;
#X connect 0 0 12 0;
#X connect 0 1 13 0;
#X connect 2 0 0 1;
#X connect 2 0 0 2;
#X connect 3 0 0 0;
#X connect 4 0 0 0;
#X connect 5 0 0 0;
#X connect 6 0 16 0;
#X connect 7 0 8 0;
#X connect 8 0 15 0;
#X connect 9 0 10 1;
#X connect 9 0 11 1;
#X connect 10 0 1 0;
#X connect 11 0 1 1;
#X connect 12 0 10 0;
#X connect 13 0 11 0;
#X connect 14 0 12 1;
#X connect 14 0 13 1;
#X connect 15 0 9 0;
#X connect 16 0 14 0;
