#N canvas 519 22 803 714 12;
#X obj 111 681 dac~;
#X obj 192 318 adc~;
#X obj 233 410 hsl 128 15 0 1 0 0 empty empty VOLUME -2 -8 0 10 #fcfcfc
#000000 #000000 0 1;
#X obj 230 526 tgl 30 0 empty empty MUTE 35 7 0 10 #fcfcfc #000000
#000000 0 1;
#X obj 230 561 == 0;
#X obj 230 609 line~;
#X obj 111 644 *~;
#X obj 191 644 *~;
#X obj 111 504 *~;
#X obj 191 504 *~;
#X obj 230 462 line~;
#X msg 230 585 \$1 5;
#X msg 230 438 \$1 5;
#X obj 110 388 clone loop 4;
#X msg 34 326 set \$1;
#X obj 34 142 vradio 30 1 0 4 empty empty LOOP\ SELECT 0 -8 0 10 #fcfcfc
#000000 #000000 0;
#X obj 110 326 pack f s;
#X obj 110 294 f;
#X obj 110 254 t b a;
#X msg 110 154 symbol start-rec;
#X msg 150 185 symbol stop-rec;
#X msg 180 217 symbol play;
#X connect 1 0 13 1;
#X connect 1 0 13 2;
#X connect 2 0 12 0;
#X connect 3 0 4 0;
#X connect 4 0 11 0;
#X connect 5 0 6 1;
#X connect 5 0 7 1;
#X connect 6 0 0 0;
#X connect 7 0 0 1;
#X connect 8 0 6 0;
#X connect 9 0 7 0;
#X connect 10 0 8 1;
#X connect 10 0 9 1;
#X connect 11 0 5 0;
#X connect 12 0 10 0;
#X connect 13 0 8 0;
#X connect 13 1 9 0;
#X connect 14 0 13 0;
#X connect 15 0 14 0;
#X connect 15 0 17 1;
#X connect 16 0 13 0;
#X connect 17 0 16 0;
#X connect 18 0 17 0;
#X connect 18 1 16 1;
#X connect 19 0 18 0;
#X connect 20 0 18 0;
#X connect 21 0 18 0;
