#N canvas -1394 90 799 728 12;
#X obj 111 681 dac~;
#X obj 162 480 adc~;
#X obj 253 480 hsl 128 15 0 1 0 0 empty empty VOLUME -2 -8 0 10 #fcfcfc
#000000 #000000 0 1;
#X obj 306 505 tgl 30 0 empty empty MUTE 35 7 0 10 #fcfcfc #000000
#000000 0 1;
#X obj 306 540 == 0;
#X obj 306 588 line~;
#X obj 111 644 *~;
#X obj 211 644 *~;
#X obj 111 574 *~;
#X obj 211 574 *~;
#X obj 250 532 line~;
#X msg 306 564 \$1 5;
#X msg 250 508 \$1 5;
#X msg 78 344 set \$1;
#X obj 78 258 r loop-control-message;
#X obj 78 311 unpack f;
#X obj 78 282 t a a;
#X obj 73 54 loop-controls 0;
#X obj 192 54 loop-controls 1;
#X obj 312 54 loop-controls 2;
#X obj 432 54 loop-controls 3;
#N canvas -1799 320 713 576 bpm-handling 1;
#X floatatom 348 182 9 0 0 0 - - - 0;
#X msg 348 285 all sec \$1;
#X obj 348 158 expr (240 / $f1) * $f2;
#X obj 348 349 outlet;
#X obj 302 28 inlet bpm;
#X obj 435 28 inlet measures;
#X msg 569 220 all play;
#X obj 569 28 inlet reset;
#X obj 499 131 + 1;
#X obj 435 52 t b f;
#X obj 586 89 s \$0-reset;
#X obj 302 96 f;
#X obj 302 122 t b f f;
#N canvas 111 509 507 420 measure-counter 0;
#X obj 135 113 metro;
#X msg 47 185 1;
#X obj 135 142 f 0;
#X obj 191 123 + 1;
#X obj 135 166 t f f f;
#X floatatom 135 275 5 0 0 0 - - - 0;
#X obj 214 226 sel 1;
#X msg 214 250 0;
#X obj 214 202 > 14;
#X obj 167 77 expr (15000 / $f1) * $f2;
#X obj 47 148 r \$0-reset;
#X obj 135 90 tgl 15 0 empty empty empty 17 7 0 10 #fcfcfc #000000
#000000 0 1;
#X obj 167 30 inlet bpm;
#X obj 332 30 inlet num-measures;
#X obj 132 336 hradio 15 1 0 16 empty empty LOOP\\\ POSITION 0 -8 0
10 #fcfcfc #000000 #000000 0;
#X connect 0 0 2 0;
#X connect 1 0 11 0;
#X connect 2 0 4 0;
#X connect 3 0 2 1;
#X connect 4 0 5 0;
#X connect 4 1 8 0;
#X connect 4 2 3 0;
#X connect 6 0 7 0;
#X connect 7 0 2 1;
#X connect 8 0 6 0;
#X connect 9 0 0 1;
#X connect 10 0 7 0;
#X connect 10 0 1 0;
#X connect 11 0 0 0;
#X connect 12 0 9 0;
#X connect 13 0 9 1;
#X restore 48 506 pd measure-counter;
#X obj 181 338 phasor~ 1;
#X msg 241 307 0;
#X obj 181 231 swap 1;
#X obj 181 255 /;
#X floatatom 181 279 5 0 0 0 hz - - 0;
#X obj 181 362 throw~ \$0-phasor;
#X obj 241 275 r \$0-reset;
#X connect 0 0 1 0;
#X connect 0 0 16 0;
#X connect 1 0 3 0;
#X connect 2 0 0 0;
#X connect 4 0 11 0;
#X connect 5 0 9 0;
#X connect 6 0 3 0;
#X connect 7 0 6 0;
#X connect 7 0 10 0;
#X connect 8 0 2 1;
#X connect 9 0 11 0;
#X connect 9 1 8 0;
#X connect 11 0 12 0;
#X connect 12 2 2 0;
#X connect 14 0 19 0;
#X connect 15 0 14 1;
#X connect 16 0 17 0;
#X connect 16 1 17 1;
#X connect 17 0 18 0;
#X connect 18 0 14 0;
#X connect 20 0 15 0;
#X coords 0 576 1 575 250 60 0;
#X restore 191 344 pd bpm-handling;
#X f 30;
#X floatatom 191 314 5 0 0 0 BPM - - 0;
#X obj 191 293 bng 15 250 50 0 empty empty empty 17 7 0 10 #fcfcfc
#000000 #000000;
#X obj 398 316 bng 15 250 50 0 empty empty RESET 17 7 0 10 #fcfcfc
#000000 #000000;
#X obj 294 316 hradio 15 1 0 4 empty empty Measures 0 -8 0 10 #fcfcfc
#000000 #000000 0;
#X obj 110 528 clone loop 4 \$0;
#X connect 1 0 26 1;
#X connect 1 1 26 2;
#X connect 2 0 12 0;
#X connect 3 0 4 0;
#X connect 4 0 11 0;
#X connect 5 0 6 1;
#X connect 5 0 7 1;
#X connect 6 0 0 0;
#X connect 7 0 0 1;
#X connect 8 0 6 0;
#X connect 9 0 7 0;
#X connect 10 0 8 1;
#X connect 10 0 9 1;
#X connect 11 0 5 0;
#X connect 12 0 10 0;
#X connect 13 0 26 0;
#X connect 14 0 16 0;
#X connect 15 0 13 0;
#X connect 16 0 15 0;
#X connect 16 1 26 0;
#X connect 21 0 26 0;
#X connect 22 0 21 0;
#X connect 23 0 22 0;
#X connect 24 0 21 2;
#X connect 25 0 21 1;
#X connect 26 0 8 0;
#X connect 26 1 9 0;
