#N canvas 789 19 1015 716 12;
#X obj 563 501 *~;
#X obj 726 501 *~;
#X obj 765 459 line~;
#X msg 765 435 \$1 5;
#X msg 398 348 set \$1;
#X obj 398 262 r loop-control-message;
#X obj 398 315 unpack f;
#X obj 398 286 t a a;
#N canvas 98 178 702 412 bpm-handling 0;
#X floatatom 320 180 9 0 0 0 - - - 0;
#X msg 320 283 all sec \$1;
#X obj 320 156 expr (240 / $f1) * $f2;
#X obj 320 347 outlet;
#X obj 274 26 inlet bpm;
#X obj 407 26 inlet measures;
#X obj 541 26 inlet reset;
#X obj 471 129 + 1;
#X obj 407 50 t b f;
#X obj 274 94 f;
#X obj 274 120 t b f f;
#N canvas 907 436 507 420 measure-counter 0;
#X obj 135 113 metro;
#X msg 47 185 1;
#X obj 135 142 f 0;
#X obj 191 123 + 1;
#X obj 135 166 t f f f;
#X floatatom 135 245 5 0 0 0 - - - 0;
#X obj 214 226 sel 1;
#X msg 214 250 0;
#X obj 214 202 > 14;
#X obj 47 148 r \$0-reset;
#X obj 135 90 tgl 15 0 empty empty empty 17 7 0 10 #fcfcfc #000000
#000000 0 1;
#X obj 135 362 hradio 15 1 0 16 empty empty LOOP\\\ POSITION 0 -8 0
10 #fcfcfc #000000 #000000 0;
#X obj 167 37 inlet seconds;
#X msg 127 45 4;
#X obj 167 77 expr ($f1 * 1000) / 16;
#X obj 224 322 s \$0-loop-pos-viewer-r;
#X connect 0 0 2 0;
#X connect 1 0 10 0;
#X connect 2 0 4 0;
#X connect 3 0 2 1;
#X connect 4 0 5 0;
#X connect 4 1 8 0;
#X connect 4 2 3 0;
#X connect 5 0 11 0;
#X connect 5 0 15 0;
#X connect 6 0 7 0;
#X connect 7 0 2 1;
#X connect 8 0 6 0;
#X connect 9 0 7 0;
#X connect 9 0 1 0;
#X connect 10 0 0 0;
#X connect 12 0 14 0;
#X connect 13 0 14 0;
#X connect 14 0 0 1;
#X restore 102 300 pd measure-counter;
#X obj 465 333 phasor~ 1;
#X msg 525 302 0;
#X obj 465 226 swap 1;
#X obj 465 250 /;
#X floatatom 465 274 5 0 0 0 hz - - 0;
#X obj 465 357 throw~ \$0-phasor;
#X obj 525 270 r \$0-reset;
#X obj 541 50 t b b;
#X obj 573 81 s \$0-reset;
#X obj 20 29 loadbang;
#X msg 66 77 120;
#X obj 66 101 s \$0-bpm-r;
#X msg 43 126 0;
#X obj 43 150 s \$0-measures-r;
#X obj 20 53 t b b b;
#X obj 20 186 s \$0-reset-r;
#X connect 0 0 1 0;
#X connect 0 0 14 0;
#X connect 0 0 11 0;
#X connect 1 0 3 0;
#X connect 2 0 0 0;
#X connect 4 0 9 0;
#X connect 5 0 8 0;
#X connect 6 0 19 0;
#X connect 7 0 2 1;
#X connect 8 0 9 0;
#X connect 8 1 7 0;
#X connect 9 0 10 0;
#X connect 10 2 2 0;
#X connect 12 0 17 0;
#X connect 13 0 12 1;
#X connect 14 0 15 0;
#X connect 14 1 15 1;
#X connect 15 0 16 0;
#X connect 16 0 12 0;
#X connect 18 0 13 0;
#X connect 19 0 9 0;
#X connect 19 1 20 0;
#X connect 21 0 26 0;
#X connect 22 0 23 0;
#X connect 24 0 25 0;
#X connect 26 0 27 0;
#X connect 26 1 24 0;
#X connect 26 2 22 0;
#X coords 0 412 1 411 250 60 0;
#X restore 562 292 pd bpm-handling;
#X f 36;
#X obj 726 356 catch~ \$0-phasor;
#X obj 765 384 r \$0-volume-s;
#X obj 811 262 r \$0-reset-s;
#X obj 686 262 r \$0-measures-s;
#X obj 562 262 r \$0-bpm-s;
#X obj 11 52 cnv 15 288 344 empty empty empty 10 20 0 30 #dfdfdf #606060
0;
#X floatatom 54 63 6 0 0 0 BPM \$0-bpm-r \$0-bpm-s 16;
#X obj 198 63 hradio 23 1 0 4 \$0-measures-s \$0-measures-r BARS -43
12 0 16 #dfdfdf #000000 #000000 0;
#X obj 11 100 cnv 15 45 297 empty empty empty 20 12 0 14 #7c7c7c #404040
0;
#X obj 23 167 cnv 15 10 10 empty empty M 0 -45 0 30 #e0e0e0 #ffffff
0;
#X obj 17 159 vsl 30 128 0.01 1.01 1 0 \$0-volume-s \$0-volume-r MAIN
0 -9 0 10 #ffffff #000000 #000000 0 1;
#X obj 563 631 outlet~ left;
#X obj 727 631 outlet~ right;
#X obj 561 94 inlet~ in-left;
#X obj 787 94 inlet~ in-right;
#X obj 562 385 clone loop-instance 6 \$0;
#X obj 18 359 tgl 30 0 \$0-bypass-s \$0-bypass-r BYPASS -2 -10 0 10
#ffffff #000000 #000000 0 1;
#X obj 618 318 catch~ \$0-audio-in-left;
#X obj 671 337 catch~ \$0-audio-in-right;
#X obj 561 232 throw~ \$0-audio-in-left;
#X obj 787 232 throw~ \$0-audio-in-right;
#X obj 771 501 r \$0-bypass-s;
#X obj 771 530 == 0;
#X obj 587 149 r \$0-bypass-s;
#X obj 587 174 == 0;
#X obj 562 203 *~ 1;
#X obj 787 203 *~ 1;
#X obj 797 123 throw~ \$0-audio-bypass-right;
#X obj 571 123 throw~ \$0-audio-bypass-left;
#X obj 563 558 *~ 1;
#X obj 726 558 *~ 1;
#X obj 582 590 catch~ \$0-audio-bypass-left;
#X obj 806 590 catch~ \$0-audio-bypass-right;
#N canvas 429 383 409 244 gui-setup 0;
#X msg 69 118 color #ffffff #000000 #000000;
#X obj 37 58 sel 1;
#X obj 138 24 loadbang;
#X obj 37 24 r \$0-bypass-s;
#X obj 37 153 s \$0-bypass-r;
#X msg 37 88 color #000000 #ffffff #000000;
#X msg 249 155 1;
#X obj 249 183 s \$0-volume-r;
#X connect 0 0 4 0;
#X connect 1 0 5 0;
#X connect 1 1 0 0;
#X connect 2 0 0 0;
#X connect 2 0 6 0;
#X connect 3 0 1 0;
#X connect 5 0 4 0;
#X connect 6 0 7 0;
#X restore 641 14 pd gui-setup;
#X obj 765 408 - 0.01;
#X obj 57 97 loop-controls 0 \$0;
#X obj 96 97 loop-controls 1 \$0;
#X obj 135 97 loop-controls 2 \$0;
#X obj 174 97 loop-controls 3 \$0;
#X obj 213 97 loop-controls 4 \$0;
#X obj 252 97 loop-controls 5 \$0;
#X obj 11 398 hradio 18 1 0 16 \$0-loop-pos-viewer-s \$0-loop-pos-viewer-r
empty 0 -8 0 10 #000000 #ffffff #000000 0;
#X text 204 66 1;
#X text 227 66 2;
#X text 250 66 3;
#X text 273 66 4;
#X obj 11 12 cnv 15 288 40 empty empty PD\ LOOPER 10 20 0 30 #dfdfdf
#606060 0;
#X obj 267 20 bng 23 250 50 0 \$0-reset-s \$0-reset-r RESET -35 12
0 10 #fcfcfc #000000 #000000;
#X connect 0 0 38 0;
#X connect 1 0 39 0;
#X connect 2 0 0 1;
#X connect 2 0 1 1;
#X connect 3 0 2 0;
#X connect 4 0 24 0;
#X connect 5 0 7 0;
#X connect 6 0 4 0;
#X connect 7 0 6 0;
#X connect 7 1 24 0;
#X connect 8 0 24 0;
#X connect 9 0 24 3;
#X connect 10 0 43 0;
#X connect 11 0 8 2;
#X connect 12 0 8 1;
#X connect 13 0 8 0;
#X connect 22 0 34 0;
#X connect 22 0 37 0;
#X connect 23 0 35 0;
#X connect 23 0 36 0;
#X connect 24 0 0 0;
#X connect 24 1 1 0;
#X connect 26 0 24 1;
#X connect 27 0 24 2;
#X connect 30 0 31 0;
#X connect 31 0 38 1;
#X connect 31 0 39 1;
#X connect 32 0 33 0;
#X connect 33 0 34 1;
#X connect 33 0 35 1;
#X connect 34 0 28 0;
#X connect 35 0 29 0;
#X connect 38 0 20 0;
#X connect 39 0 21 0;
#X connect 40 0 20 0;
#X connect 41 0 21 0;
#X connect 43 0 3 0;
#X coords 0 -1 1 1 290 408 1 10 10;
