#N canvas 882 36 767 910 12;
#X obj 205 721 *~;
#X obj 368 721 *~;
#X obj 407 679 line~;
#X msg 407 655 \$1 5;
#X msg 30 592 set \$1;
#X obj 30 506 r loop-control-message;
#X obj 30 559 unpack f;
#X obj 30 530 t a a;
#N canvas -986 306 713 576 bpm-handling 0;
#X floatatom 348 182 9 0 0 0 - - - 0;
#X msg 348 285 all sec \$1;
#X obj 348 158 expr (240 / $f1) * $f2;
#X obj 348 349 outlet;
#X obj 302 28 inlet bpm;
#X obj 435 28 inlet measures;
#X obj 569 28 inlet reset;
#X obj 499 131 + 1;
#X obj 435 52 t b f;
#X obj 302 96 f;
#X obj 302 122 t b f f;
#N canvas 111 509 507 420 measure-counter 0;
#X obj 135 113 metro;
#X msg 47 185 1;
#X obj 135 142 f 0;
#X obj 191 123 + 1;
#X obj 135 166 t f f f;
#X floatatom 135 275 5 0 0 0 - - - 0;
#X obj 214 226 sel 1;
#X msg 214 250 0;
#X obj 214 202 > 14;
#X obj 167 77 expr (15000 / $f1) * $f2;
#X obj 47 148 r \$0-reset;
#X obj 135 90 tgl 15 0 empty empty empty 17 7 0 10 #fcfcfc #000000
#000000 0 1;
#X obj 167 30 inlet bpm;
#X obj 332 30 inlet num-measures;
#X obj 132 336 hradio 15 1 0 16 empty empty LOOP\\\ POSITION 0 -8 0
10 #fcfcfc #000000 #000000 0;
#X connect 0 0 2 0;
#X connect 1 0 11 0;
#X connect 2 0 4 0;
#X connect 3 0 2 1;
#X connect 4 0 5 0;
#X connect 4 1 8 0;
#X connect 4 2 3 0;
#X connect 6 0 7 0;
#X connect 7 0 2 1;
#X connect 8 0 6 0;
#X connect 9 0 0 1;
#X connect 10 0 7 0;
#X connect 10 0 1 0;
#X connect 11 0 0 0;
#X connect 12 0 9 0;
#X connect 13 0 9 1;
#X restore 48 506 pd measure-counter;
#X obj 169 363 phasor~ 1;
#X msg 229 332 0;
#X obj 169 256 swap 1;
#X obj 169 280 /;
#X floatatom 169 304 5 0 0 0 hz - - 0;
#X obj 169 387 throw~ \$0-phasor;
#X obj 229 300 r \$0-reset;
#X obj 569 52 t b;
#X connect 0 0 1 0;
#X connect 0 0 14 0;
#X connect 1 0 3 0;
#X connect 2 0 0 0;
#X connect 4 0 9 0;
#X connect 5 0 8 0;
#X connect 6 0 19 0;
#X connect 7 0 2 1;
#X connect 8 0 9 0;
#X connect 8 1 7 0;
#X connect 9 0 10 0;
#X connect 10 2 2 0;
#X connect 12 0 17 0;
#X connect 13 0 12 1;
#X connect 14 0 15 0;
#X connect 14 1 15 1;
#X connect 15 0 16 0;
#X connect 16 0 12 0;
#X connect 18 0 13 0;
#X connect 19 0 9 0;
#X coords 0 576 1 575 250 60 0;
#X restore 204 532 pd bpm-handling;
#X f 36;
#X obj 368 596 catch~ \$0-phasor;
#X obj 407 624 r \$0-volume-s;
#X obj 453 502 r \$0-reset-s;
#X obj 328 502 r \$0-measures-s;
#X obj 204 502 r \$0-bpm-s;
#N canvas 429 383 409 244 gui-colors 0;
#X msg 69 118 color #ffffff #000000 #000000;
#X obj 37 58 sel 1;
#X obj 138 24 loadbang;
#X obj 37 24 r \$0-bypass-s;
#X obj 37 153 s \$0-bypass-r;
#X msg 37 88 color #000000 #ffffff #000000;
#X connect 0 0 4 0;
#X connect 1 0 5 0;
#X connect 1 1 0 0;
#X connect 2 0 0 0;
#X connect 3 0 1 0;
#X connect 5 0 4 0;
#X restore 641 14 pd gui-colors;
#X obj 11 12 cnv 15 598 202 empty empty PD\\\ LOOPER 10 20 0 16 #e0e0e0
#606060 0;
#X obj 100 54 loop-controls 0;
#X obj 185 54 loop-controls 1;
#X obj 270 54 loop-controls 2;
#X obj 355 54 loop-controls 3;
#X floatatom 266 21 8 0 0 0 BPM \$0-bpm-r \$0-bpm-s 16;
#X obj 577 21 bng 23 250 50 0 \$0-reset-s \$0-reset-r RESET -55 12
0 16 #fcfcfc #000000 #000000;
#X obj 411 21 hradio 23 1 0 4 \$0-measures-s \$0-measures-r BARS -43
12 0 16 #fcfcfc #000000 #000000 0;
#X obj 440 54 loop-controls 4;
#X obj 525 54 loop-controls 5;
#X obj 11 54 cnv 15 85 160 empty empty empty 20 12 0 14 #7c7c7c #404040
0;
#X obj 23 79 cnv 15 10 10 empty empty M 40 12 0 30 #e0e0e0 #ffffff
0;
#X obj 18 75 vsl 30 128 0.01 1.01 1 0 \$0-volume-s \$0-volume-r MAIN
0 -9 0 10 #ffffff #000000 #ffffff 0 1;
#X obj 205 851 outlet~ left;
#X obj 369 851 outlet~ right;
#X obj 205 264 inlet~ in-left;
#X obj 431 264 inlet~ in-right;
#X obj 204 625 clone loop-instance 6 \$0;
#X obj 58 176 tgl 30 0 \$0-bypass-s \$0-bypass-r BYPASS 0 -10 0 10
#000000 #ffffff #000000 0 1;
#X obj 260 557 catch~ \$0-audio-in-left;
#X obj 313 577 catch~ \$0-audio-in-right;
#X obj 205 402 throw~ \$0-audio-in-left;
#X obj 431 402 throw~ \$0-audio-in-right;
#X obj 413 721 r \$0-bypass-s;
#X obj 413 750 == 0;
#X obj 231 319 r \$0-bypass-s;
#X obj 231 344 == 0;
#X obj 206 373 *~ 1;
#X obj 431 373 *~ 1;
#X obj 441 293 throw~ \$0-audio-bypass-right;
#X obj 215 293 throw~ \$0-audio-bypass-left;
#X obj 205 778 *~ 1;
#X obj 368 778 *~ 1;
#X obj 224 810 catch~ \$0-audio-bypass-left;
#X obj 448 810 catch~ \$0-audio-bypass-right;
#X connect 0 0 46 0;
#X connect 1 0 47 0;
#X connect 2 0 0 1;
#X connect 2 0 1 1;
#X connect 3 0 2 0;
#X connect 4 0 32 0;
#X connect 5 0 7 0;
#X connect 6 0 4 0;
#X connect 7 0 6 0;
#X connect 7 1 32 0;
#X connect 8 0 32 0;
#X connect 9 0 32 3;
#X connect 10 0 3 0;
#X connect 11 0 8 2;
#X connect 12 0 8 1;
#X connect 13 0 8 0;
#X connect 30 0 42 0;
#X connect 30 0 45 0;
#X connect 31 0 43 0;
#X connect 31 0 44 0;
#X connect 32 0 0 0;
#X connect 32 1 1 0;
#X connect 34 0 32 1;
#X connect 35 0 32 2;
#X connect 38 0 39 0;
#X connect 39 0 46 1;
#X connect 39 0 47 1;
#X connect 40 0 41 0;
#X connect 41 0 42 1;
#X connect 41 0 43 1;
#X connect 42 0 36 0;
#X connect 43 0 37 0;
#X connect 46 0 28 0;
#X connect 47 0 29 0;
#X connect 48 0 28 0;
#X connect 49 0 29 0;
#X coords 0 -1 1 1 600 206 1 10 10;
