#N canvas 519 22 799 728 12;
#X obj 111 681 dac~;
#X obj 192 318 adc~;
#X obj 233 410 hsl 128 15 0 1 0 0 empty empty VOLUME -2 -8 0 10 #fcfcfc
#000000 #000000 0 1;
#X obj 230 526 tgl 30 0 empty empty MUTE 35 7 0 10 #fcfcfc #000000
#000000 0 1;
#X obj 230 561 == 0;
#X obj 230 609 line~;
#X obj 111 644 *~;
#X obj 191 644 *~;
#X obj 111 504 *~;
#X obj 191 504 *~;
#X obj 230 462 line~;
#X msg 230 585 \$1 5;
#X msg 230 438 \$1 5;
#X obj 110 388 clone loop 4;
#X msg 78 349 set \$1;
#X obj 78 263 r loop-control-message;
#X obj 78 316 unpack f;
#X obj 78 287 t a a;
#X obj 73 54 loop-controls 0;
#X obj 192 54 loop-controls 1;
#X obj 312 54 loop-controls 2;
#X obj 432 54 loop-controls 3;
#X connect 1 0 13 1;
#X connect 1 1 13 2;
#X connect 2 0 12 0;
#X connect 3 0 4 0;
#X connect 4 0 11 0;
#X connect 5 0 6 1;
#X connect 5 0 7 1;
#X connect 6 0 0 0;
#X connect 7 0 0 1;
#X connect 8 0 6 0;
#X connect 9 0 7 0;
#X connect 10 0 8 1;
#X connect 10 0 9 1;
#X connect 11 0 5 0;
#X connect 12 0 10 0;
#X connect 13 0 8 0;
#X connect 13 1 9 0;
#X connect 14 0 13 0;
#X connect 15 0 17 0;
#X connect 16 0 14 0;
#X connect 17 0 16 0;
#X connect 17 1 13 0;
