#N canvas 850 24 505 731 12;
#X obj 60 124 pd-looper;
#X obj 60 612 dac~;
#X obj 61 26 adc~;
#X obj 61 54 utils/stereo-mute;
#X obj 60 542 utils/stereo-mute;
#X connect 0 0 4 0;
#X connect 0 1 4 1;
#X connect 2 0 3 0;
#X connect 2 1 3 1;
#X connect 3 0 0 0;
#X connect 3 1 0 1;
#X connect 4 0 1 0;
#X connect 4 1 1 1;
